<svg id="color_line" height="512" viewBox="0 0 74 74" width="512" xmlns="http://www.w3.org/2000/svg" data-name="color line"><path d="m27.616 21.28c.222-10.5 11.909-17.53 11.909-17.53a22.791 22.791 0 0 0 4.376 11.1 10.809 10.809 0 0 1 2.49 7.005 5.79 5.79 0 0 1 -.067.812 8.245 8.245 0 0 1 -8.224 6.919h-2.13a8.276 8.276 0 0 1 -8.354-8.306z" fill="#fcd462"/><path d="m39.52 3.75a21.956 21.956 0 0 0 .75 3.77c-2.77 1.93-10.79 8.24-10.98 16.92a8 8 0 0 0 .27 2.2 7.937 7.937 0 0 1 -1.94-5.36c.22-10.5 11.9-17.53 11.9-17.53z" fill="#f7be56"/><path d="m48.066 53.693v17.307h-21.747v-20.61a2.261 2.261 0 0 0 2.225-2.255v-6.26a1.711 1.711 0 0 1 3.422 0v5.225a1.993 1.993 0 0 0 .564 1.385 1.965 1.965 0 0 0 3.353-1.385v-3.049a1.517 1.517 0 0 1 1.5-1.513h.417a1.519 1.519 0 0 1 1.513 1.513 1.726 1.726 0 0 0 1.731 1.731h.178a1.91 1.91 0 0 0 1.909-1.909v-3.1a1.518 1.518 0 0 1 3.036 0v11.012a1.9 1.9 0 0 0 .554 1.355 1.874 1.874 0 0 0 1.345.553z" fill="#eeefee"/><path d="m48.07 53.69v17.31h-3.25v-15.44a4.1 4.1 0 0 0 -1.34-2.91l-.01-.01a1.928 1.928 0 0 1 -.55-1.36v-6.55a1.766 1.766 0 0 0 .21-.86v-3.09a1.52 1.52 0 1 1 3.04 0v11a1.928 1.928 0 0 0 .55 1.36 1.863 1.863 0 0 0 1.35.55z" fill="#e1e6e9"/><path d="m49.985 37.118v14.667a1.909 1.909 0 0 1 -1.909 1.909h-.01a1.874 1.874 0 0 1 -1.345-.554 1.9 1.9 0 0 1 -.554-1.355v-10.926a1.573 1.573 0 0 0 -1.117-1.542 1.516 1.516 0 0 0 -1.919 1.46v3.1a1.909 1.909 0 0 1 -1.909 1.909h-.178a1.73 1.73 0 0 1 -1.731-1.73 1.519 1.519 0 0 0 -1.513-1.518h-.415a1.5 1.5 0 0 0 -1.5 1.5v2.962a2.03 2.03 0 0 1 -1.547 2.007 1.949 1.949 0 0 1 -1.806-.527 1.993 1.993 0 0 1 -.564-1.385v-5.219a1.712 1.712 0 0 0 -2.01-1.685 1.78 1.78 0 0 0 -1.412 1.783v5.655c0 1.767-1 2.763-2.225 2.763h-.04a2.262 2.262 0 0 1 -2.265-2.255v-11.019a4.054 4.054 0 0 1 4.054-4.054h17.861a4.054 4.054 0 0 1 4.054 4.054z" fill="#bbbbcd"/><path d="m45.928 33.06h-18.573a3.845 3.845 0 0 0 -3.035 2.827c.027 0 .053-.007.08-.007h19.83a3.071 3.071 0 0 1 3.07 3.07v14.59a1.923 1.923 0 0 0 .77.15h.01a1.9 1.9 0 0 0 1.9-1.91v-14.668a4.052 4.052 0 0 0 -4.052-4.052z" fill="#9297ab"/><path d="m32.039 25.194c.117-5.554 6.3-9.269 6.3-9.269a12.051 12.051 0 0 0 2.314 5.868 5.716 5.716 0 0 1 1.316 3.7 3.061 3.061 0 0 1 -.036.429 4.36 4.36 0 0 1 -4.349 3.66h-1.129a4.376 4.376 0 0 1 -4.416-4.388z" fill="#fe7058"/><g fill="#323c6b"><path d="m37.582 30.086h-1.127a5 5 0 0 1 -3.555-1.492 4.7 4.7 0 0 1 -1.364-3.41c.122-5.764 6.278-9.53 6.54-9.687a.5.5 0 0 1 .756.388 11.63 11.63 0 0 0 2.205 5.6 6.243 6.243 0 0 1 1.429 4.015 3.552 3.552 0 0 1 -.04.492 4.871 4.871 0 0 1 -4.844 4.094zm-5.042-4.881a3.71 3.71 0 0 0 1.078 2.689 4 4 0 0 0 2.838 1.192h1.126a3.866 3.866 0 0 0 3.855-3.232 2.544 2.544 0 0 0 .03-.355 5.191 5.191 0 0 0 -1.207-3.394 12.171 12.171 0 0 1 -2.306-5.319c-1.54 1.108-5.326 4.251-5.415 8.418z"/><path d="m37 33.251a.5.5 0 0 1 -.5-.5v-6.834a.5.5 0 0 1 1 0v6.834a.5.5 0 0 1 -.5.5z"/><path d="m48.066 71.5h-21.747a.5.5 0 0 1 -.5-.5v-20.61a.5.5 0 0 1 .492-.5 1.765 1.765 0 0 0 1.733-1.754v-6.26a2.211 2.211 0 1 1 4.422 0v5.224a1.5 1.5 0 0 0 .422 1.036 1.473 1.473 0 0 0 2.063 0 1.449 1.449 0 0 0 .431-1.037v-3.048a2.025 2.025 0 0 1 2-2.013h.4a2.02 2.02 0 0 1 2.033 2.013 1.232 1.232 0 0 0 1.231 1.23h.178a1.41 1.41 0 0 0 1.409-1.409v-3.1a2.018 2.018 0 0 1 4.036 0v11.013a1.4 1.4 0 0 0 .407 1 1.373 1.373 0 0 0 .992.407.5.5 0 0 1 .5.5v17.308a.5.5 0 0 1 -.502.5zm-21.247-1h20.747v-16.358a2.39 2.39 0 0 1 -1.9-2.357v-11.007a1.018 1.018 0 0 0 -2.036 0v3.1a2.411 2.411 0 0 1 -2.409 2.409h-.178a2.233 2.233 0 0 1 -2.231-2.23 1.014 1.014 0 0 0 -1.012-1.019h-.416a1.019 1.019 0 0 0 -1 1.013v3.049a2.441 2.441 0 0 1 -.727 1.747 2.574 2.574 0 0 1 -1.755.711 2.464 2.464 0 0 1 -1.719-.715 2.514 2.514 0 0 1 -.715-1.743v-5.225a1.211 1.211 0 0 0 -2.422 0v6.26a2.772 2.772 0 0 1 -2.225 2.7z"/><path d="m48.076 54.193a2.391 2.391 0 0 1 -2.409-2.409v-10.925a1.075 1.075 0 0 0 -.744-1.058 1.016 1.016 0 0 0 -1.292.976v3.1a2.411 2.411 0 0 1 -2.409 2.409h-.178a2.23 2.23 0 0 1 -2.231-2.23 1.02 1.02 0 0 0 -1.013-1.018h-.416a1 1 0 0 0 -1 1v2.962a2.531 2.531 0 0 1 -1.941 2.5 2.456 2.456 0 0 1 -2.26-.658 2.514 2.514 0 0 1 -.715-1.743v-5.224a1.212 1.212 0 0 0 -1.426-1.192 1.28 1.28 0 0 0 -1 1.29v5.655c0 1.921-1.121 3.263-2.725 3.263a2.77 2.77 0 0 1 -2-.809 2.733 2.733 0 0 1 -.809-1.945v-11.019a4.559 4.559 0 0 1 4.554-4.554h17.869a4.559 4.559 0 0 1 4.554 4.554v14.667a2.411 2.411 0 0 1 -2.409 2.408zm-3.431-15.428a2.017 2.017 0 0 1 2.023 2.094v10.926a1.4 1.4 0 0 0 .407 1 1.373 1.373 0 0 0 .992.407 1.412 1.412 0 0 0 1.418-1.409v-14.665a3.558 3.558 0 0 0 -3.554-3.554h-17.862a3.558 3.558 0 0 0 -3.554 3.554v11.018a1.762 1.762 0 0 0 1.765 1.754c1.087 0 1.765-.888 1.765-2.263v-5.654a2.287 2.287 0 0 1 1.827-2.273 2.212 2.212 0 0 1 2.595 2.178v5.222a1.5 1.5 0 0 0 .422 1.036 1.462 1.462 0 0 0 1.343.387 1.527 1.527 0 0 0 1.15-1.523v-2.96a2.006 2.006 0 0 1 2-2h.4a2.02 2.02 0 0 1 2.033 2.014 1.23 1.23 0 0 0 1.231 1.229h.178a1.41 1.41 0 0 0 1.409-1.409v-3.1a2.012 2.012 0 0 1 2.013-2.013z"/><path d="m38.1 30.086h-2.13a9.009 9.009 0 0 1 -6.4-2.689 8.454 8.454 0 0 1 -2.452-6.128c.223-10.656 11.662-17.655 12.149-17.948a.5.5 0 0 1 .756.388 22.456 22.456 0 0 0 4.267 10.825 11.368 11.368 0 0 1 2.6 7.326 6.373 6.373 0 0 1 -.072.875 8.762 8.762 0 0 1 -8.718 7.351zm-9.982-8.8a7.459 7.459 0 0 0 2.164 5.414 8 8 0 0 0 5.685 2.389h2.133a7.757 7.757 0 0 0 7.731-6.494 5.41 5.41 0 0 0 .062-.74 10.246 10.246 0 0 0 -2.38-6.693 22.842 22.842 0 0 1 -4.388-10.554c-2.438 1.663-10.825 8.009-11.009 16.683z"/><path d="m51.066 56.833a.5.5 0 0 1 -.5-.5v-.625a.5.5 0 0 1 1 0v.625a.5.5 0 0 1 -.5.5z"/><path d="m51.066 66.458a.5.5 0 0 1 -.5-.5v-7.5a.5.5 0 0 1 1 0v7.5a.5.5 0 0 1 -.5.5z"/><path d="m25.468 16.708a.5.5 0 0 1 -.477-.65l.044-.15c.022-.079.045-.157.07-.233a.5.5 0 0 1 .948.317l-.109.366a.5.5 0 0 1 -.476.35z"/><path d="m26.351 14.375a.493.493 0 0 1 -.207-.045.5.5 0 0 1 -.248-.662 26.927 26.927 0 0 1 4.721-6.968.5.5 0 0 1 .737.676 25.92 25.92 0 0 0 -4.548 6.7.5.5 0 0 1 -.455.299z"/></g></svg>