<svg height="496pt" viewBox="0 0 496 496" width="496pt" xmlns="http://www.w3.org/2000/svg"><path d="m248 496c-136.753906 0-248-111.246094-248-248s111.246094-248 248-248 248 111.246094 248 248-111.246094 248-248 248zm0 0" fill="#f0bc5e"/><path d="m248 192c-17.648438 0-32-14.351562-32-32s14.351562-32 32-32 32 14.351562 32 32-14.351562 32-32 32zm0-48c-8.824219 0-16 7.175781-16 16s7.175781 16 16 16 16-7.175781 16-16-7.175781-16-16-16zm0 0"/><path d="m288 368h-80v-48h16v-64h-16v-48h64v112h16zm-64-16h48v-16h-16v-112h-32v16h16v96h-16zm0 0"/><path d="m410.808594 364.097656-13.023438-9.296875c22.382813-31.335937 34.214844-68.273437 34.214844-106.800781 0-101.457031-82.542969-184-184-184-38.527344 0-75.464844 11.832031-106.800781 34.214844l-9.296875-13.023438c34.066406-24.335937 74.210937-37.191406 116.097656-37.191406 110.28125 0 200 89.71875 200 200 0 41.886719-12.855469 82.03125-37.191406 116.097656zm0 0"/><path d="m248 448c-110.28125 0-200-89.71875-200-200 0-41.886719 12.863281-82.03125 37.199219-116.097656l13.015625 9.296875c-22.382813 31.335937-34.214844 68.265625-34.214844 106.800781 0 101.457031 82.542969 184 184 184 38.527344 0 75.464844-11.832031 106.800781-34.214844l9.296875 13.023438c-34.066406 24.335937-74.210937 37.191406-116.097656 37.191406zm0 0"/></svg>